<?xml version="1.0" standalone="no"?>
<!DOCTYPE svg PUBLIC "-//W3C//DTD SVG 20010904//EN"
 "http://www.w3.org/TR/2001/REC-SVG-20010904/DTD/svg10.dtd">
<svg version="1.0" xmlns="http://www.w3.org/2000/svg"
 width="566.000000pt" height="353.000000pt" viewBox="0 0 566.000000 353.000000"
 preserveAspectRatio="xMidYMid meet">

<g transform="translate(0.000000,353.000000) scale(0.100000,-0.100000)"
fill="#000000" stroke="none">
<path d="M1195 3351 c-22 -10 -57 -37 -77 -59 -43 -48 -83 -55 -113 -22 -22
24 -16 25 30 6 19 -8 35 -11 35 -6 0 14 -58 68 -81 75 -26 9 -59 -20 -59 -52
0 -31 82 -85 116 -77 23 6 23 6 10 -32 -16 -47 -51 -57 -81 -24 -22 24 -19 25
29 5 36 -15 37 -15 27 4 -14 26 -69 71 -87 71 -15 0 -54 -35 -54 -48 0 -38 90
-95 128 -81 22 8 23 7 17 -24 -4 -17 -36 -119 -72 -226 -73 -217 -87 -297 -57
-327 17 -17 19 -38 22 -164 2 -129 0 -155 -23 -240 -43 -162 -54 -213 -74
-350 -11 -73 -23 -136 -28 -139 -4 -4 -40 -17 -78 -29 -39 -12 -92 -35 -119
-52 l-47 -30 41 -35 c23 -19 44 -35 46 -35 3 0 19 7 35 16 21 10 43 13 68 9
61 -10 79 3 117 88 18 42 64 170 101 285 l67 207 1 120 c0 111 -3 127 -32 211
-18 50 -33 103 -33 117 0 14 -4 29 -10 32 -5 3 -10 14 -10 24 0 23 62 166 138
317 33 66 70 154 83 194 37 121 92 154 145 85 l27 -36 -36 -33 c-20 -18 -41
-45 -47 -60 -13 -36 -13 -129 1 -257 15 -136 14 -144 -21 -197 -21 -32 -30
-58 -30 -85 l0 -40 58 63 c90 100 86 86 89 265 2 88 9 169 14 180 6 11 24 29
41 40 77 49 92 126 46 227 -56 121 -158 167 -263 119z"/>
<path d="M881 3111 c-29 -29 -26 -44 14 -80 39 -34 98 -43 109 -16 4 11 -1 15
-18 15 -12 0 -31 9 -41 20 -22 24 -18 25 29 5 45 -19 46 -8 4 32 -45 42 -72
49 -97 24z"/>
<path d="M840 3000 c-25 -25 -25 -31 1 -64 l20 -26 -23 0 c-50 0 -65 -51 -25
-87 35 -32 67 -45 93 -39 26 7 33 26 10 26 -8 0 -28 11 -43 25 l-28 26 39 -16
c48 -19 57 -13 27 19 l-23 25 38 3 c42 3 61 28 21 28 -13 0 -32 9 -42 20 -22
24 -18 25 29 5 47 -20 46 -6 -4 39 -46 41 -62 44 -90 16z"/>
<path d="M766 2784 c-25 -24 -19 -49 20 -84 27 -23 44 -30 67 -28 33 3 51 28
19 28 -10 0 -27 10 -38 22 -14 15 -15 20 -4 16 72 -25 79 -16 25 31 -40 34
-66 39 -89 15z"/>
<path d="M1168 2385 c-38 -51 -83 -161 -121 -295 -18 -64 -21 -97 -18 -220 2
-80 4 -187 4 -238 2 -84 4 -93 22 -97 130 -24 140 -28 183 -70 44 -45 49 -64
32 -126 -15 -54 -82 -109 -202 -167 -64 -30 -107 -57 -111 -68 -3 -11 -13 -41
-21 -67 l-15 -48 47 -21 c140 -60 300 -144 393 -206 96 -64 209 -167 209 -191
0 -56 -253 -135 -485 -151 -77 -5 -153 -13 -170 -17 -16 -4 -34 -6 -40 -4 -5
1 -93 6 -195 11 -195 10 -256 21 -266 52 -3 10 -13 18 -23 18 -14 0 -20 11
-25 50 -8 57 -16 60 -69 25 -47 -33 -53 -58 -27 -127 39 -105 83 -126 299
-148 264 -26 371 -24 601 10 251 37 326 52 380 80 21 11 54 20 73 20 30 0 35
5 60 55 15 31 27 63 27 71 0 31 -64 135 -122 199 -77 83 -191 169 -329 246
-112 63 -134 90 -79 97 30 4 152 121 146 139 -3 8 3 12 16 10 30 -3 57 46 64
119 6 54 3 66 -26 123 -54 108 -160 201 -228 201 -11 0 -23 4 -26 8 -3 5 15
163 40 353 24 189 43 362 42 384 l-3 40 -37 -50z"/>
<path d="M3910 2095 c-217 -31 -548 -187 -581 -272 -11 -29 10 -86 37 -101 18
-10 17 -18 -10 -189 -16 -98 -32 -181 -35 -185 -3 -4 -54 -17 -113 -28 -126
-24 -178 -44 -179 -68 -4 -56 15 -86 68 -108 46 -20 74 -17 128 11 26 14 52
24 58 22 5 -1 11 -33 13 -71 6 -109 34 -306 49 -343 21 -51 40 -52 85 -5 l39
41 -20 157 c-25 195 -20 248 28 280 35 24 158 60 265 78 37 6 75 19 87 30 17
15 23 17 36 6 19 -16 87 -6 130 19 33 19 182 45 207 36 9 -4 33 1 53 9 25 11
42 13 49 7 7 -6 27 -6 51 -1 22 5 59 10 82 10 43 0 123 26 123 40 0 12 -26 31
-33 23 -4 -3 -13 0 -21 6 -18 15 -304 7 -319 -8 -6 -6 -37 -8 -71 -4 -34 3
-86 0 -116 -6 -30 -7 -94 -18 -143 -26 -48 -8 -148 -26 -222 -40 -107 -21
-139 -23 -156 -14 -17 9 -23 8 -30 -2 -14 -23 -19 -4 -13 44 7 53 24 64 24 16
0 -20 4 -29 13 -26 6 2 12 17 12 33 0 16 3 34 6 39 13 20 49 153 49 181 0 16
-7 40 -17 53 -16 23 -15 25 18 52 176 145 481 220 615 151 58 -30 84 -59 84
-92 0 -23 4 -30 20 -30 11 0 23 8 26 18 3 9 9 24 14 33 12 22 -7 102 -33 141
-31 47 -117 87 -197 93 -36 2 -108 -2 -160 -10z"/>
<path d="M4491 1892 c-19 -35 -13 -71 15 -95 67 -56 89 -90 110 -172 17 -61
18 -210 3 -291 -17 -93 -124 -256 -209 -319 -71 -52 -144 -57 -156 -10 -14 58
24 114 117 170 32 20 59 43 59 50 0 7 -12 28 -26 45 -22 25 -32 30 -52 25 -40
-10 -138 -83 -167 -124 -72 -104 -55 -245 34 -290 58 -30 105 -27 190 14 90
43 192 142 239 232 99 188 96 457 -8 668 -34 72 -64 102 -107 111 -25 5 -33 2
-42 -14z"/>
<path d="M5212 1861 c-19 -11 -39 -140 -53 -338 -15 -206 -5 -308 45 -475 39
-129 70 -168 131 -168 18 0 36 4 39 8 3 5 -8 51 -25 102 -75 239 -87 431 -43
649 27 135 26 179 -7 212 -20 20 -64 25 -87 10z"/>
<path d="M2300 1739 c-15 -27 -7 -58 25 -91 27 -29 54 -35 86 -18 26 14 27 90
1 113 -28 25 -98 23 -112 -4z"/>
<path d="M722 1414 c-33 -81 -75 -315 -87 -479 -9 -132 -21 -187 -55 -264 -16
-38 -30 -86 -30 -107 l0 -37 46 59 c55 69 107 175 129 259 19 71 33 535 18
574 l-9 24 -12 -29z"/>
<path d="M3912 1304 c-139 -37 -228 -120 -278 -259 -32 -87 -32 -158 -2 -179
12 -9 33 -16 46 -16 37 0 130 54 200 116 40 36 63 51 66 42 2 -7 7 -25 10 -39
15 -71 96 -142 156 -137 30 3 35 6 32 27 -1 13 -15 39 -32 57 -53 61 -58 100
-27 222 32 128 34 158 8 172 -27 14 -116 11 -179 -6z m68 -83 c0 -16 -95 -114
-174 -180 -50 -41 -76 -57 -76 -46 0 30 42 98 88 144 61 61 162 112 162 82z"/>
<path d="M4775 1266 c-37 -63 -45 -99 -45 -201 0 -75 4 -97 23 -129 43 -77
140 -102 223 -60 26 14 51 19 75 16 29 -3 40 1 55 20 18 23 18 36 12 188 -8
174 -16 200 -62 200 -43 0 -50 -15 -57 -114 -11 -139 -48 -210 -113 -218 -23
-2 -33 2 -43 22 -16 30 -13 75 12 192 18 85 18 88 0 108 -28 31 -51 25 -80
-24z"/>
<path d="M2145 1243 c-29 -31 -87 -146 -106 -210 -15 -53 -29 -55 -30 -5 0 20
-8 62 -17 92 -15 48 -21 55 -46 58 -16 2 -33 -1 -38 -6 -16 -16 -10 -205 8
-254 8 -23 26 -57 40 -75 24 -31 30 -34 72 -31 l46 3 71 165 c60 141 73 165
92 166 92 5 51 124 -42 124 -13 0 -36 -12 -50 -27z"/>
<path d="M2600 1264 c-54 -10 -88 -26 -110 -49 -21 -22 -22 -28 -12 -62 7 -21
37 -67 66 -103 l55 -65 -19 -29 c-39 -63 18 -118 138 -132 72 -8 108 -1 121
24 17 32 -18 79 -130 178 -60 52 -109 99 -109 104 0 5 14 17 32 26 24 12 52
15 122 13 l91 -4 -2 29 c-4 55 -33 71 -131 73 -48 0 -98 -1 -112 -3z"/>
<path d="M2320 1245 c-8 -10 -11 -60 -8 -177 3 -143 6 -167 24 -198 25 -44 68
-66 103 -54 36 13 37 36 7 104 -23 51 -26 70 -26 172 0 102 -2 118 -21 142
-23 29 -60 34 -79 11z"/>
<path d="M1470 1218 c-60 -31 -75 -74 -61 -167 8 -52 20 -80 58 -136 54 -79
111 -118 174 -118 53 0 135 43 192 101 l48 48 -11 52 c-21 94 -94 166 -218
212 -88 33 -130 35 -182 8z m171 -99 c51 -17 94 -53 114 -95 22 -46 9 -75 -51
-110 -92 -54 -136 -15 -181 163 -9 39 3 53 45 53 22 0 54 -5 73 -11z"/>
<path d="M2230 661 c-13 -26 -13 -31 4 -31 7 0 21 11 30 25 16 24 15 25 -3 25
-11 0 -25 -9 -31 -19z"/>
<path d="M1947 614 c-4 -4 -7 -67 -7 -141 0 -125 1 -133 20 -133 17 0 19 8 22
73 l3 72 14 -42 c17 -53 36 -55 51 -5 21 65 30 59 30 -21 0 -71 2 -77 20 -77
20 0 20 5 18 138 -3 127 -4 137 -22 137 -14 0 -24 -14 -38 -55 -10 -30 -21
-62 -24 -70 -4 -9 -16 11 -33 54 -25 67 -39 84 -54 70z"/>
<path d="M2307 614 c-14 -14 -7 -34 13 -34 19 0 20 -7 20 -120 l0 -120 26 0
25 0 -1 108 c-1 59 -1 113 -1 120 1 6 10 12 22 12 14 0 19 5 17 18 -2 13 -15
18 -58 20 -31 2 -59 0 -63 -4z"/>
<path d="M2475 595 c-23 -22 -25 -32 -25 -118 0 -111 15 -140 69 -140 56 0 66
20 66 139 0 99 -1 107 -24 125 -31 26 -57 24 -86 -6z m65 -41 c11 -29 13 -97
4 -143 -5 -25 -11 -31 -28 -29 -19 3 -21 10 -24 86 -3 80 6 112 29 112 5 0 14
-12 19 -26z"/>
<path d="M2630 481 l0 -141 49 0 c31 0 55 6 65 15 31 31 35 210 5 240 -8 8
-38 17 -66 21 l-53 7 0 -142z m79 90 c17 -11 26 -127 12 -163 -7 -18 -18 -28
-31 -28 -19 0 -20 6 -20 93 0 106 5 119 39 98z"/>
<path d="M2829 601 c-23 -18 -24 -26 -24 -125 0 -119 10 -139 66 -139 54 0 69
29 69 140 0 86 -2 96 -25 118 -29 30 -55 32 -86 6z m61 -40 c11 -21 14 -139 4
-165 -3 -9 -15 -16 -25 -16 -17 0 -19 8 -19 93 0 52 3 97 7 100 11 12 22 8 33
-12z"/>
<path d="M3050 481 l0 -141 48 0 c73 0 82 15 82 137 0 116 -8 129 -83 139
l-47 7 0 -142z m79 85 c8 -9 11 -45 9 -98 -3 -77 -4 -83 -25 -86 -22 -3 -23
-1 -23 91 0 51 3 97 7 100 10 11 19 8 32 -7z"/>
<path d="M3229 608 c-3 -7 -3 -70 -1 -140 l4 -128 55 0 c46 0 54 3 51 18 -2
11 -14 18 -36 20 -30 3 -32 6 -32 43 0 37 2 39 31 39 24 0 30 4 27 18 -2 10
-14 18 -31 20 -24 3 -27 7 -27 43 0 38 1 39 36 39 28 0 35 3 32 18 -2 13 -15
18 -54 20 -36 2 -53 -1 -55 -10z"/>
<path d="M3461 601 c-23 -23 -36 -124 -24 -190 14 -73 72 -100 118 -55 10 10
15 35 15 75 0 59 0 59 -29 59 -36 0 -50 -19 -27 -36 25 -18 18 -69 -9 -69 -19
0 -20 7 -20 95 0 84 2 95 18 98 12 3 20 -4 24 -17 7 -28 43 -28 43 -1 0 28
-35 60 -65 60 -14 0 -34 -9 -44 -19z"/>
<path d="M3707 613 c-4 -3 -7 -58 -7 -120 0 -113 0 -114 -22 -111 -22 3 -23 7
-26 116 -2 104 -4 112 -22 112 -19 0 -20 -7 -20 -118 0 -125 4 -138 53 -155
19 -7 56 8 69 27 4 6 8 66 8 134 0 95 -3 122 -13 122 -8 0 -17 -3 -20 -7z"/>
<path d="M3867 613 c-14 -13 -6 -33 13 -33 18 0 20 -8 22 -117 3 -114 4 -118
26 -121 22 -3 22 -2 22 112 0 106 2 115 20 121 11 3 20 15 20 26 0 17 -7 19
-58 19 -32 0 -62 -3 -65 -7z"/>
<path d="M4052 603 c-9 -18 -62 -234 -62 -253 0 -23 38 -9 44 16 6 21 11 25
39 22 24 -2 33 -8 35 -25 4 -24 42 -34 42 -10 0 25 -53 243 -63 255 -13 17
-25 15 -35 -5z m28 -85 c0 -7 3 -30 6 -50 6 -35 5 -38 -16 -38 -20 0 -22 4
-16 31 3 17 6 40 6 50 0 11 5 19 10 19 6 0 10 -6 10 -12z"/>
<path d="M4187 614 c-4 -4 -7 -67 -7 -141 0 -126 1 -133 20 -133 18 0 20 7 20
55 0 39 4 55 13 55 7 0 21 -25 31 -55 13 -42 22 -55 37 -55 23 0 23 4 3 63
-15 44 -15 50 1 83 18 39 14 94 -8 112 -16 12 -101 25 -110 16z m71 -43 c8 -5
12 -22 10 -42 -2 -26 -8 -34 -23 -34 -15 0 -21 8 -23 28 -6 49 7 67 36 48z"/>
<path d="M4592 608 c-5 -7 -23 -70 -39 -140 l-30 -128 23 0 c16 0 24 7 26 23
2 17 11 23 34 25 27 3 33 -1 38 -22 4 -17 13 -26 26 -26 11 0 20 3 20 6 0 15
-52 232 -60 252 -11 25 -23 28 -38 10z m32 -135 c6 -39 4 -43 -15 -43 -19 0
-21 4 -15 38 3 20 6 44 6 52 0 29 18 -6 24 -47z"/>
<path d="M2168 475 l3 -135 55 0 c47 0 55 3 52 18 -2 11 -14 18 -36 20 -30 3
-32 6 -32 43 0 37 2 39 31 39 24 0 30 4 27 18 -2 10 -14 18 -31 20 -26 3 -28
6 -25 40 3 34 6 37 36 40 20 2 32 9 32 18 0 10 -14 14 -57 14 l-58 0 3 -135z"/>
<path d="M3790 475 c0 -128 1 -135 20 -135 19 0 20 7 20 135 0 128 -1 135 -20
135 -19 0 -20 -7 -20 -135z"/>
<path d="M4360 475 l0 -135 25 0 c24 0 25 3 25 55 0 30 4 55 9 55 6 0 18 -25
27 -55 15 -45 22 -55 40 -55 l23 0 -20 60 c-19 55 -19 61 -5 82 20 29 20 77 0
106 -12 18 -25 22 -70 22 l-54 0 0 -135z m88 93 c25 -25 8 -78 -25 -78 -9 0
-13 15 -13 45 0 46 13 58 38 33z"/>
</g>
</svg>
